<?xml version="1.0" encoding="utf-8"?>
<!-- Generator: Adobe Illustrator 23.0.5, SVG Export Plug-In . SVG Version: 6.00 Build 0)  -->
<svg version="1.1" id="Capa_1" xmlns="http://www.w3.org/2000/svg" xmlns:xlink="http://www.w3.org/1999/xlink" x="0px" y="0px"
	 viewBox="0 0 100 100" style="enable-background:new 0 0 100 100;" xml:space="preserve">
<path id="XMLID_665_" d="M36.53,46.22C38.28,61.99,52.9,73.62,75.7,77.41c-1.99-3.64-7.92-3.9-7.53-8.96
	c0.57-0.41,1.02-0.93,1.22-0.85c5.88,2.48,11.8,4.88,17.55,7.63c1.95,0.93,2.62,3.28,0.87,4.88c-3.68,3.37-7.34,6.93-13.04,9.12
	c0.52-2.79,0.88-4.73,1.15-6.18c-6.51-1.64-13.07-2.74-19.22-4.97c-14.52-5.27-24.17-15.2-26.98-30.82
	c-0.45-2.47-1.74-3.51-3.74-4.64c-8.38-4.71-13.4-11.93-14.57-21.49c-0.43-3.48-0.71-7.3,3.8-10.36c-1.51,6.55-0.42,11.96,2.46,17
	c2.82,4.93,6.41,9.04,11.84,11c3.18-4.13,5.73-8.45,9.25-11.74c3.52-3.3,7.75-6.12,12.13-8.13c4.5-2.06,9.02-0.32,11.52,3.11
	c2.49,3.42,2.33,7.85-0.8,11.93c-4.93,6.41-11.59,10.06-19.48,11.54C40.27,45.82,38.39,45.98,36.53,46.22z M36.75,40.68
	c8.5-0.25,14.58-3.43,19.61-8.94c1.64-1.8,2.99-3.94,1.08-6.25c-1.64-1.99-3.93-1.46-5.88-0.48C45.1,28.23,40.31,33.09,36.75,40.68z
	"/>
</svg>
