<?xml version="1.0" encoding="utf-8"?>
<!-- Generator: Adobe Illustrator 23.0.5, SVG Export Plug-In . SVG Version: 6.00 Build 0)  -->
<svg version="1.1" id="Capa_1" xmlns="http://www.w3.org/2000/svg" xmlns:xlink="http://www.w3.org/1999/xlink" x="0px" y="0px"
	 viewBox="0 0 50 50" style="enable-background:new 0 0 50 50;" xml:space="preserve">
<style type="text/css">
	.st0{fill:url(#SVGID_1_);}
</style>
<g>
	<linearGradient id="SVGID_1_" gradientUnits="userSpaceOnUse" x1="2.5" y1="25" x2="47.5" y2="25">
		<stop  offset="0" style="stop-color:#8F15FF"/>
		<stop  offset="1" style="stop-color:#0010FF"/>
	</linearGradient>
	<path class="st0" d="M25,2.5C12.6,2.5,2.5,12.6,2.5,25c0,12.4,10.1,22.5,22.5,22.5c12.4,0,22.5-10.1,22.5-22.5
		C47.5,12.6,37.4,2.5,25,2.5z M34.5,34.7c-0.3,0.3-0.7,0.5-1,0.5c-0.3,0-0.6-0.1-0.8-0.3c-7.8-6-18.9-2-19-2
		c-0.7,0.3-1.4-0.1-1.7-0.8c-0.3-0.7,0.1-1.4,0.8-1.7c0.5-0.2,12.5-4.6,21.5,2.3C34.8,33.3,34.9,34.2,34.5,34.7z M37.9,28.9
		c-0.3,0.4-0.8,0.6-1.3,0.6c-0.3,0-0.7-0.1-1-0.3c-9.6-7.4-23.1-2.4-23.2-2.4c-0.9,0.3-1.8-0.1-2.1-1c-0.3-0.9,0.1-1.8,1-2.1
		c0.6-0.2,15.3-5.6,26.4,2.9C38.3,27.1,38.4,28.1,37.9,28.9z M39.4,22.7c-0.4,0-0.8-0.1-1.1-0.4c-11.1-8-26.9-2.6-27-2.6
		c-1,0.4-2.2-0.2-2.5-1.2c-0.4-1,0.2-2.2,1.2-2.5c0.7-0.3,17.8-6.1,30.6,3.1c0.9,0.6,1.1,1.9,0.4,2.8C40.6,22.4,40,22.7,39.4,22.7z"
		/>
</g>
</svg>
